# xmcd
#
# Track frame offsets: 
#        150
#        5835
#        22402
#        41505
#        61835
#        84547
#        100367
#        108735
#        128445
#        148110
#        166032
#        190745
#        196710
#        212312
#        230412
#        232665
#        252520
#        270650
#        301930
#
# Disc length: 4092 seconds
#
# Revision: 1
# Processed by: cddbd v1.5.1PL2 Copyright (c) Steve Scherf et al.
# Submitted via: ExactAudioCopy v0.95a5
#
DISCID=f90ffa13
DTITLE=Lil' Mo - Meet The Girl Next Door
DYEAR=2003
DGENRE=R&B
TTITLE0=Intro
TTITLE1=Why Do We Fall In Love
TTITLE2=Doing Me Wrong
TTITLE3=4ever (featuring Fabolous)
TTITLE4=Ten Commandments (featuring Lil' Kim)
TTITLE5=Ain't No Reason
TTITLE6=Heaven (Interlude)
TTITLE7=Brand Nu
TTITLE8=1st Time
TTITLE9=So Lost Without You
TTITLE10=Shoulda Known
TTITLE11=Disturbing Phone Call (Interlude)
TTITLE12=Get Over It
TTITLE13=It's Your World
TTITLE14=Letter From My #1 Fan (Interlude)
TTITLE15=Letter To My #1 Fan
TTITLE16=21 Answers (featuring Free)
TTITLE17=4ever (Midi Mafia Reggae Remix featuring Baby Cham)
TTITLE18=DATA
EXTD=Meet the girl next door
EXTT0=
EXTT1=
EXTT2=
EXTT3=
EXTT4=
EXTT5=
EXTT6=
EXTT7=
EXTT8=
EXTT9=
EXTT10=
EXTT11=
EXTT12=
EXTT13=
EXTT14=
EXTT15=
EXTT16=
EXTT17=
EXTT18=
PLAYORDER=
